# xmcd
#
# Track frame offsets: 
#        150
#        17420
#        38489
#        53555
#        73899
#        91777
#        109607
#
# Disc length: 1643 seconds
#
# Revision: 0
# Processed by: cddbd v1.5.2PL0 Copyright (c) Steve Scherf et al.
# Submitted via: ExactAudioCopyFreeDBPlugin 1.0
#
DISCID=48066907
DTITLE=Rita Hosking - Little Boat
DYEAR=2013
DGENRE=Americana
TTITLE0=Parting Glass
TTITLE1=Where Time Is Reigning
TTITLE2=Sierra Bound
TTITLE3=Clean
TTITLE4=Nothing Left of Me
TTITLE5=Blow Northwest Wind
TTITLE6=Five Star Location
EXTD=
EXTT0=
EXTT1=
EXTT2=
EXTT3=
EXTT4=
EXTT5=
EXTT6=
PLAYORDER=
